<svg width="443" height="447" viewBox="0 0 443 447" fill="none" xmlns="http://www.w3.org/2000/svg">
<path d="M190.873 57.3835C190.682 46.7075 190.784 36.009 190.77 25.3305C190.763 19.7635 190.188 13.4635 191.066 7.98849C191.338 6.29399 192.125 4.793 193.253 3.5025C194.724 1.82 196.918 0.626998 199.17 0.521498C200.424 0.469922 201.676 0.667833 202.854 1.10376C204.031 1.53968 205.11 2.20496 206.028 3.061C207.534 4.4825 208.258 6.16199 208.626 8.16949C209.662 13.818 209.085 20.212 209.071 25.959L208.987 57.488C219.345 57.2828 229.705 57.2353 240.065 57.3455L239.945 25.6195C239.93 20.0155 239.395 13.8545 240.23 8.3215C240.48 6.651 240.965 5.26549 242.09 3.97999C243.76 2.07349 246.31 0.754492 248.86 0.677992C251.47 0.599492 254.265 1.5005 256.155 3.3445C257.38 4.5435 258.035 5.9735 258.37 7.6425C259.535 13.5105 258.865 20.25 258.85 26.231L258.82 57.4725L289.565 57.3785C289.715 46.7455 289.58 36.0945 289.59 25.4595C289.59 19.852 289.15 13.7935 290.08 8.265C290.385 6.435 290.98 5.09199 292.255 3.73849C293.93 1.96349 296.13 0.642499 298.615 0.590499C301.25 0.535499 303.83 1.66751 305.68 3.52251C307.08 4.92401 308.02 6.651 308.345 8.612C309.185 13.6925 308.64 19.5155 308.64 24.693L308.615 57.5165L334.375 57.451C351.41 57.4235 365.75 57.242 378.62 70.1465C392.08 83.6385 392.215 97.7975 392.17 115.613L392.08 141.363L419.4 141.414C424.46 141.376 430.135 140.676 435.125 141.488C436.585 141.727 437.94 142.303 439.06 143.284C441.045 145.013 442.105 147.598 442.18 150.203C442.245 152.511 441.505 154.961 439.805 156.585C438.76 157.586 437.525 158.109 436.115 158.385C430.245 159.533 423.695 159.001 417.715 158.971L392.12 158.938C392.245 169.315 391.825 179.732 392.23 190.1C407.31 190.109 422.595 189.684 437.645 190.571C437.905 190.777 438.17 190.978 438.43 191.187C440.575 192.927 442.645 195.534 442.81 198.402C442.955 200.856 441.93 203.623 440.2 205.37C438.925 206.654 437.395 207.327 435.635 207.665C430.695 208.614 425.065 208.131 420.035 208.105L392.165 207.841C392.228 218.214 392.197 228.587 392.07 238.959C405.135 238.991 418.39 238.368 431.43 238.945C434.985 239.103 438.375 239.392 440.835 242.242C442.495 244.17 443.23 246.593 442.89 249.115C442.425 252.549 439.98 254.515 437.37 256.471C422.505 257.42 407.175 256.63 392.26 256.586C392.41 267.218 392.3 277.869 392.305 288.503L418.7 288.413C423.905 288.378 429.475 287.963 434.62 288.603C436.35 288.818 437.745 289.247 439.125 290.341C441.28 292.045 442.675 295.164 442.805 297.881C442.88 299.534 442.325 301.049 441.18 302.25C439.25 304.279 436.42 305.209 433.73 305.69C428.88 306.558 423.3 305.928 418.37 305.884L392.305 305.812L392.4 332.129C392.45 349.615 392.64 365.755 379.335 379.025C366.595 391.735 351.57 391.515 334.75 391.48L308.545 391.39L308.52 423.785C308.52 428.33 309.215 434.375 308.205 438.765C307.535 441.665 305.745 444.32 303.1 445.735C300.895 446.92 298.17 447.155 295.81 446.295C292.745 445.17 291.2 443.135 289.88 440.26C289.36 433.98 289.585 427.555 289.55 421.255L289.255 391.43L258.98 391.48L258.99 421.495C259.005 426.9 259.475 432.655 258.875 438.02C258.68 439.76 258.21 441.625 257.135 443.05C255.59 445.1 252.965 446.605 250.4 446.82C247.905 447.03 245.095 446.19 243.295 444.42C241.6 442.75 241.055 440.49 240.74 438.2C239.94 432.305 240.465 425.985 240.425 420.02L240.04 391.42L210.478 391.385L210.51 422.165C210.513 427.445 211.014 433.285 210.172 438.49C209.885 440.265 209.381 441.76 208.233 443.175C206.526 445.27 203.848 446.51 201.173 446.715C200.005 446.813 198.83 446.663 197.725 446.275C196.62 445.887 195.608 445.271 194.758 444.465C193.34 443.135 192.453 441.435 192.054 439.54C190.846 433.805 191.574 427.065 191.606 421.195L191.724 391.25L160.124 391.37C160.381 401.045 160.293 410.75 160.326 420.43C160.346 426.245 160.859 432.535 159.983 438.28C159.671 440.325 159.207 442.175 157.807 443.765C156.195 445.595 153.812 446.6 151.392 446.67C148.784 446.74 146.176 445.945 144.372 443.995C143.186 442.71 142.365 440.98 142.014 439.275C140.93 434.025 141.565 427.72 141.581 422.365L141.766 391.45L115.042 391.43C97.7285 391.46 81.705 391.865 68.457 378.725C63.28 373.59 58.6315 366.015 56.694 358.97C53.9255 348.9 55.151 317.734 55.168 306.085C45.2692 306.381 35.3656 306.493 25.4625 306.422C19.8285 306.43 13.7541 306.886 8.18305 305.966C5.60405 305.54 3.66054 304.613 2.19154 302.385C0.804039 300.281 0.138531 297.503 0.677531 295.017C1.33603 291.978 3.58105 290.225 6.00355 288.543C22.3571 287.855 38.918 288.049 55.2805 288.389C55.567 277.838 55.3365 267.207 55.336 256.648C45.4922 256.621 35.6482 256.645 25.8045 256.719C19.9095 256.771 13.47 257.381 7.65754 256.515C5.93604 256.259 4.52205 255.782 3.24205 254.57C1.54305 252.961 0.570548 250.546 0.494548 248.226C0.416548 245.856 1.20254 243.54 2.90354 241.854C4.47104 240.3 6.63205 239.518 8.78605 239.223C13.0906 238.631 18.037 239.17 22.4225 239.154C33.4091 239.063 44.3963 239.082 55.3825 239.209L55.367 208.379C39.0903 208.506 22.8127 208.498 6.53605 208.354C5.09155 207.484 3.81004 206.629 2.73454 205.307C1.09754 203.296 0.194528 200.708 0.642528 198.115C1.22303 194.755 3.31404 192.872 6.02604 191.077C12.073 190.4 18.403 190.728 24.4915 190.743L55.4845 190.842L55.4591 158.328C45.038 158.397 34.6167 158.409 24.1955 158.363C19.2735 158.375 13.7516 159.047 8.90455 158.316C6.79455 157.998 4.75455 157.306 3.08155 155.944C2.22767 155.254 1.52792 154.393 1.02754 153.416C0.527156 152.439 0.237268 151.368 0.176555 150.272C0.0445547 147.738 1.10605 145.09 2.90705 143.31C3.85855 142.369 5.07603 141.608 6.39753 141.335C12.336 140.107 19.3595 140.774 25.449 140.794L55.4355 140.848L55.44 105.232C55.529 91.732 59.53 80.183 69.3195 70.6135C82.6485 57.584 98.4205 56.988 116 56.991L141.191 57.1425C141.13 48.6885 139.945 12.0095 141.86 6.3905C142.932 3.244 145.687 1.8185 148.541 0.551497C151.503 0.500497 154.225 1.03601 156.461 3.14101C157.872 4.469 158.78 6.315 159.132 8.2065C160.15 13.6755 159.572 20.0255 159.566 25.5965L159.501 57.514L190.873 57.3835Z" fill="#E4ECF7"/>
<path d="M154.721 299.479C147.859 292.661 146.247 286.52 146.213 277.082L146.363 197.586C146.367 187.499 145.319 167.182 146.989 158.021C147.741 153.896 149.864 150.082 152.808 147.116C155.865 144.035 159.677 142.403 163.887 141.565C169.87 140.374 176.538 140.951 182.633 140.996L219.92 141.094C226.545 141.147 234.155 141.978 240.64 141.008C245.845 140.231 251.115 137.808 256.1 136.135C266.83 132.487 278.102 130.688 289.435 130.816C294.11 130.913 301.605 131.214 304.735 135.245C305.99 136.861 305.985 140.282 306.06 142.304C306.435 152.387 306.075 162.625 306.045 172.723L305.975 230.193L306.055 266.438C306.075 273.701 307.18 283.075 305.315 290.061C303.925 295.267 299.56 300.121 294.85 302.595C292.71 303.721 290.615 304.173 288.215 304.361C275.395 305.363 261.93 304.553 249.05 304.561C228.755 304.575 208.425 304.979 188.132 304.669C181.853 314.855 169.718 336.825 159.213 341.85C157.305 342.97 155.485 343.64 153.249 343.74C150.559 343.855 148.486 342.935 146.485 341.215C143.493 337.3 143.077 333.551 143.758 328.72C145.203 318.468 150.163 308.664 154.721 299.479Z" fill="#16192C"/>
<path d="M279.79 144.184C282.625 143.658 288.87 143.248 291.39 144.576C292.28 145.045 292.64 145.853 292.91 146.795C293.73 149.712 293.33 153.227 293.215 156.241C292.59 172.395 289.065 189.687 280.915 203.815C269.53 208.369 257.325 209.442 245.275 211.076C255.485 214.371 267.56 212.976 277.91 211.164C272.78 220.793 267.56 231.049 260.01 239.043C250.125 249.512 226.19 249.296 212.526 249.744C225.82 253.716 237.17 253.887 250.675 251.1C234.772 267.678 215.404 280.539 193.954 288.767C189.671 290.398 185.275 291.393 180.945 292.837C171.606 304.691 165.185 318.597 155.49 330.306C161.743 310.657 174.338 290.444 185.902 273.45C193.732 262.598 201.298 251.512 209.326 240.809C218.955 227.973 229.17 215.527 239.08 202.903C231.405 208.787 224.82 215.78 218.06 222.661C201.876 239.143 186.176 256.47 173.152 275.614C172.002 271.159 171.207 266.776 170.841 262.184C170.229 254.513 169.838 245.703 171.469 238.183C174.43 224.528 187.009 208.34 196.008 197.804C197.092 209.843 196.781 222.029 198.776 233.975C203.884 219.422 201.264 194.011 209.822 182.754C219.37 170.193 244.03 155.22 258.565 149.546C265.48 146.845 272.435 145.138 279.79 144.184Z" fill="#E4ECF7"/>
</svg>
